<?xml version="1.0" standalone="no"?>
<!DOCTYPE svg PUBLIC "-//W3C//DTD SVG 20010904//EN"
 "http://www.w3.org/TR/2001/REC-SVG-20010904/DTD/svg10.dtd">
<svg version="1.0" xmlns="http://www.w3.org/2000/svg"
 width="1080.000000pt" height="1080.000000pt" viewBox="0 0 1080.000000 1080.000000"
 preserveAspectRatio="xMidYMid meet">
<metadata>
Created by potrace 1.14, written by Peter Selinger 2001-2017
</metadata>
<g transform="translate(0.000000,1080.000000) scale(0.100000,-0.100000)"
fill="#000000" stroke="none">
<path d="M8967 5394 c-4 -4 -8 -23 -8 -43 l-2 -36 -10 38 c-6 20 -16 37 -23
37 -15 0 -26 -46 -24 -92 1 -18 1 -42 1 -53 -2 -19 -2 -19 -15 -2 -13 17 -46
24 -46 10 2 -32 32 -130 49 -159 27 -46 28 -132 2 -274 -11 -58 -22 -141 -26
-185 -3 -44 -10 -96 -14 -115 l-8 -35 -15 35 c-20 46 -83 117 -119 136 -16 8
-57 15 -91 16 -73 2 -160 -29 -195 -70 -31 -36 -56 -125 -49 -170 4 -20 9 -55
12 -77 4 -22 12 -47 19 -55 23 -26 52 -140 46 -174 -6 -27 -11 -31 -43 -34
-55 -5 -215 -115 -250 -173 -42 -68 -84 -195 -128 -388 -22 -97 -44 -193 -49
-214 l-9 -37 50 -22 c50 -21 50 -21 28 -38 -12 -9 -39 -22 -59 -29 -20 -7 -63
-25 -96 -41 -165 -79 -233 -109 -258 -115 -15 -4 -27 -11 -27 -16 0 -5 -7 -9
-15 -9 -9 0 -27 -7 -41 -16 -35 -23 -246 -114 -264 -114 -10 0 -25 26 -43 73
-15 41 -27 78 -27 84 0 6 -12 37 -26 68 -22 51 -31 90 -33 143 -1 7 -5 11 -10
8 -5 -3 -14 1 -21 9 -18 22 -37 18 -56 -10 -15 -24 -15 -27 0 -44 9 -10 36
-98 61 -196 46 -185 46 -194 3 -195 -9 0 -21 -6 -25 -13 -8 -12 -170 -87 -223
-102 -14 -4 -32 -13 -40 -19 -27 -22 -129 -58 -141 -50 -7 4 -9 3 -5 -4 3 -6
-4 -13 -16 -17 -13 -3 -36 -13 -53 -20 -45 -20 -69 -28 -79 -26 -5 1 -12 -2
-15 -7 -9 -14 -128 -62 -143 -59 -7 2 -9 2 -5 -1 16 -8 -76 -43 -97 -37 -14 4
-17 3 -8 -3 9 -6 1 -14 -32 -26 -25 -10 -56 -18 -69 -20 -14 -1 -33 -10 -42
-20 -12 -11 -26 -15 -41 -12 -13 4 -29 0 -38 -9 -12 -12 -46 -21 -46 -12 0 1
-9 27 -20 57 -25 67 -25 70 0 70 13 0 18 5 14 15 -5 11 2 15 26 15 18 0 45 8
62 18 l29 17 -3 115 -3 115 -26 3 c-25 3 -26 7 -37 97 -19 152 -24 141 63 137
107 -5 108 2 21 180 -38 79 -70 154 -71 168 -1 16 -7 25 -18 24 -9 -1 -15 1
-14 5 1 5 -19 48 -28 59 -6 8 -56 -20 -54 -30 5 -43 -5 -35 -36 27 -42 85
-115 244 -115 250 0 4 -29 69 -81 182 -16 34 -29 65 -29 68 0 5 -22 56 -73
165 -29 63 -43 94 -83 190 -10 25 -32 73 -50 108 -17 34 -26 62 -21 62 5 0 6
11 3 26 -8 28 19 148 40 181 19 30 18 33 -8 33 -29 0 -52 -15 -45 -27 8 -13
-38 -141 -59 -164 -9 -10 -14 -19 -9 -19 17 0 -23 -34 -101 -85 -95 -62 -80
-23 -139 -360 -31 -176 -51 -283 -85 -470 -5 -27 -16 -87 -24 -133 -17 -92
-21 -102 -42 -102 -8 0 -14 -4 -14 -10 0 -5 -6 -10 -13 -10 -14 0 -43 -40 -39
-54 2 -5 -4 -6 -12 -3 -8 3 -17 0 -19 -8 -14 -34 37 -34 84 1 19 14 48 31 64
38 27 12 36 29 84 162 30 82 69 187 86 234 18 47 45 119 60 160 15 41 31 78
34 82 4 5 17 -29 28 -75 12 -45 49 -185 83 -312 68 -254 82 -308 134 -505 19
-74 40 -184 46 -244 6 -61 20 -135 30 -165 10 -31 17 -58 14 -60 -2 -2 -4 1
-4 7 0 7 -7 12 -15 12 -21 0 -19 -13 10 -46 14 -16 25 -33 25 -37 0 -5 5 -5
12 -1 7 4 8 3 4 -5 -4 -6 -12 -9 -17 -6 -14 9 -11 -15 5 -30 12 -12 10 -24
-12 -80 l-27 -65 -200 -2 c-110 -2 -236 -3 -280 -3 l-80 0 -3 -102 -3 -103
-78 0 c-43 0 -126 -3 -184 -7 l-107 -6 0 26 c0 23 4 27 29 27 35 0 51 18 24
26 -10 3 -26 10 -35 15 -24 12 -61 12 -53 -1 3 -6 -5 -10 -19 -10 -30 0 -44
-18 -19 -26 33 -10 48 -21 51 -38 3 -13 -6 -16 -48 -16 -44 0 -53 -3 -57 -20
-5 -20 -12 -21 -240 -19 -211 1 -234 3 -231 17 3 22 -31 62 -49 55 -9 -3 -11
0 -7 10 4 12 -4 19 -34 26 -22 6 -47 9 -55 5 -12 -4 -14 -1 -10 15 3 12 13 21
23 21 48 0 50 6 50 130 0 75 -4 121 -11 126 -6 3 -9 15 -6 25 5 20 -17 27 -28
9 -3 -5 -15 -10 -26 -10 -20 0 -21 2 -24 133 -1 48 1 57 14 55 9 -2 17 -12 19
-23 7 -43 25 -66 51 -63 56 7 68 108 14 116 -16 2 -34 25 -63 80 -54 100 -57
103 -80 72 l-19 -25 -30 29 c-17 16 -35 43 -41 60 -5 17 -21 53 -35 80 -14 27
-25 57 -25 67 0 9 -3 19 -7 21 -12 5 -43 76 -43 98 0 11 -4 20 -10 20 -5 0 -7
7 -4 15 4 8 2 15 -4 15 -5 0 -26 39 -47 88 -20 48 -43 101 -50 117 -49 111
-92 224 -87 229 3 3 0 6 -7 6 -6 0 -11 6 -9 13 1 6 -4 23 -12 37 -8 14 -14 54
-14 90 l-1 65 -33 3 c-28 3 -40 -3 -71 -35 -21 -21 -66 -51 -100 -67 -40 -20
-63 -37 -66 -50 -3 -12 -9 -43 -14 -71 -5 -27 -19 -97 -31 -155 -12 -58 -26
-130 -31 -160 -32 -193 -50 -251 -89 -290 -27 -27 -22 -32 41 -46 36 -8 53 -8
64 0 8 6 34 70 59 143 50 149 118 323 127 323 3 0 16 -46 28 -102 61 -281 74
-340 91 -423 10 -49 37 -163 60 -253 23 -90 46 -196 51 -235 5 -40 12 -88 15
-108 5 -31 3 -36 -21 -47 -22 -10 -25 -15 -15 -27 7 -8 18 -15 26 -15 7 0 18
-9 24 -20 9 -17 7 -26 -10 -47 -20 -26 -20 -28 -4 -40 17 -12 17 -14 -2 -28
-49 -38 -74 -41 -74 -9 0 12 -8 13 -37 8 -21 -4 -45 -10 -53 -14 -8 -4 -160
-11 -337 -14 l-323 -7 -1 68 -2 68 -9 -55 c-5 -30 -11 -112 -14 -182 l-6 -128
-78 0 c-78 0 -79 0 -83 -27 l-4 -28 -2 28 c-1 29 -18 35 -40 15 -8 -7 -11 -8
-8 -3 8 15 -746 7 -755 -8 -5 -9 -8 -9 -8 -1 0 14 -53 26 -75 18 -8 -4 -15
-18 -15 -34 0 -19 -6 -29 -20 -33 -20 -5 -21 -10 -24 -122 l-1 -30 -126 -3
c-116 -2 -127 -4 -132 -22 -4 -17 -8 -18 -30 -7 -17 8 -22 14 -14 19 20 13
-86 -3 -115 -17 -16 -8 -28 -10 -28 -6 0 4 -16 7 -35 8 -19 1 -35 -3 -35 -8 0
-5 -4 -9 -10 -9 -6 0 -10 123 -10 350 l0 350 29 0 c31 0 59 24 41 35 -5 3 -19
3 -30 0 -14 -4 -20 -2 -20 8 0 18 -24 29 -45 21 -8 -4 -15 -13 -15 -21 0 -9
-9 -14 -22 -13 -13 1 -29 2 -37 1 -26 -2 22 -30 52 -31 l27 0 0 -123 c0 -68
-3 -219 -7 -336 l-6 -212 -51 3 c-37 2 -50 -1 -48 -9 3 -18 -35 -16 -42 2 -4
11 -11 13 -30 6 -13 -6 -27 -7 -32 -3 -4 4 -4 1 0 -5 5 -9 -1 -13 -21 -13 -22
0 -25 2 -13 10 11 7 5 10 -23 10 -21 0 -36 4 -32 9 11 18 -15 22 -39 6 -28
-19 -77 -16 -84 4 -3 8 -1 11 4 8 5 -2 15 1 22 9 7 8 10 14 6 14 -3 0 -2 6 4
13 11 13 -9 52 -21 40 -4 -3 -9 2 -13 11 -7 17 -34 22 -34 6 0 -5 -9 -10 -20
-10 -11 0 -20 5 -20 10 0 6 4 10 10 10 5 0 8 14 7 30 -1 23 -8 32 -24 36 -16
4 -24 16 -29 40 -3 19 -12 34 -20 34 -8 0 -14 5 -14 10 0 6 3 9 8 9 4 -1 12
-1 19 0 17 1 4 31 -13 31 -8 0 -14 10 -14 25 0 16 6 25 16 25 33 0 6 23 -29
25 -41 2 -59 -11 -30 -22 24 -9 32 -21 26 -43 -3 -11 -11 -16 -19 -13 -9 3
-14 -2 -14 -16 0 -14 5 -19 15 -15 12 5 15 0 13 -25 -1 -17 -8 -31 -15 -31 -7
0 -13 -4 -13 -10 0 -5 5 -10 11 -10 6 0 9 -6 6 -12 -2 -7 -1 -25 4 -40 7 -27
4 -30 -63 -52 -11 -3 -15 -11 -12 -21 4 -8 1 -22 -6 -30 -10 -12 -7 -15 17
-20 15 -3 42 -10 58 -14 27 -8 25 -9 -21 -10 -52 -1 -74 11 -74 41 0 10 -7 18
-16 18 -8 0 -13 -3 -11 -7 5 -7 -148 -18 -246 -17 l-37 0 0 -848 0 -848 5400
0 5400 0 0 1281 0 1280 -86 -3 c-94 -2 -112 8 -96 53 5 13 2 66 -9 133 -11 76
-17 179 -18 326 -1 118 -3 298 -6 400 -3 102 -7 277 -9 390 -3 113 -6 210 -8
215 -4 13 22 47 46 60 19 11 31 71 15 80 -4 3 -25 8 -46 11 -21 2 -53 7 -71
10 -20 4 -44 1 -57 -6 -18 -10 -47 -11 -112 -5 -48 4 -104 9 -124 10 -20 1
-42 5 -48 9 -20 13 -123 -6 -142 -25 -11 -11 -21 -19 -22 -19 -2 0 -46 -23
-98 -51 -312 -170 -969 -502 -969 -489 0 6 15 41 34 78 33 66 78 212 91 300 7
41 2 88 -26 267 -21 133 -27 249 -17 325 5 41 13 154 17 250 6 145 12 192 35
275 21 78 25 105 17 123 -6 13 -15 21 -20 18 -10 -7 -21 17 -21 45 0 25 -39
26 -41 2 -1 -10 -4 -3 -8 16 -6 34 -20 48 -34 35z m-3615 -977 c-6 -7 -19 -32
-30 -56 l-18 -44 -28 25 -28 24 48 32 c51 33 74 41 56 19z m143 -132 c20 -49
48 -115 62 -145 14 -30 41 -91 60 -135 19 -44 48 -109 65 -145 16 -36 38 -85
48 -110 10 -25 29 -70 43 -100 72 -159 87 -201 72 -206 -9 -4 -14 -18 -13 -37
1 -46 -44 -181 -54 -163 -11 20 -284 743 -312 825 -16 49 -18 65 -8 68 18 7
15 18 -14 52 l-26 31 13 102 c9 71 15 95 20 78 3 -14 23 -65 44 -115z m-89 19
c-5 -14 -56 -20 -56 -7 0 4 12 31 28 60 l27 53 3 -46 c2 -26 1 -53 -2 -60z
m3404 -59 c-13 -43 -55 -105 -71 -105 -22 0 -20 33 3 58 14 15 36 51 49 81 20
45 25 51 27 31 2 -13 -1 -42 -8 -65z m-3530 50 c14 -19 14 -19 -2 -6 -10 7
-18 18 -18 24 0 6 1 8 3 6 1 -2 9 -13 17 -24z m-22 -32 c22 -52 20 -84 -11
-173 -8 -25 -28 -85 -42 -134 -25 -82 -29 -88 -41 -71 -8 11 -13 24 -11 30 3
5 20 97 38 202 19 106 37 193 40 193 4 0 16 -21 27 -47z m109 -49 c-3 -3 -12
-4 -19 -1 -8 3 -5 6 6 6 11 1 17 -2 13 -5z m4608 -63 c-22 -21 -131 -77 -656
-345 -326 -166 -415 -207 -384 -177 6 5 179 94 385 199 364 184 563 287 625
323 40 23 54 23 30 0z m-4561 -107 c7 -33 23 -94 35 -138 22 -78 23 -112 3
-59 -85 225 -94 258 -75 277 10 10 21 -14 37 -80z m-116 -14 c-2 -28 -8 -36
-25 -38 -27 -4 -28 -1 -7 69 15 50 17 52 26 29 5 -13 8 -40 6 -60z m4637 71
c-14 -13 -278 -151 -282 -147 -3 3 276 155 287 156 2 0 0 -4 -5 -9z m575 -358
c1 -186 3 -352 4 -369 1 -16 -1 -39 -5 -50 -5 -12 -8 0 -8 36 -2 102 -12 524
-15 623 -3 74 0 97 9 97 10 0 14 -71 15 -337z m-606 303 c-10 -8 -140 -76
-289 -152 -148 -76 -313 -159 -364 -186 -52 -26 -97 -48 -100 -48 -16 0 40 31
269 148 140 72 309 160 375 196 66 35 122 63 124 60 3 -2 -4 -11 -15 -18z
m512 -3 c1 -10 4 -85 7 -168 6 -143 20 -930 21 -1197 1 -91 -2 -128 -11 -128
-13 0 -20 97 -28 385 -3 110 -7 288 -10 395 -3 107 -8 307 -10 444 -3 136 -8
252 -10 257 -3 4 3 12 12 18 25 14 29 14 29 -6z m41 -166 c-2 -23 -3 -1 -3 48
0 50 1 68 3 42 2 -26 2 -67 0 -90z m-602 114 c-10 -9 -309 -168 -480 -254 -54
-28 -94 -52 -89 -54 11 -4 93 33 149 66 17 9 102 55 190 100 88 46 179 94 203
108 23 14 42 21 42 15 0 -5 -66 -44 -147 -88 -82 -43 -184 -98 -228 -122 -44
-23 -98 -52 -120 -63 -22 -11 -74 -38 -115 -60 -148 -79 -267 -139 -278 -139
-6 0 -13 4 -16 9 -4 5 2 7 12 4 11 -2 25 1 33 9 8 7 31 22 52 32 20 11 37 23
37 27 0 11 -32 -1 -45 -16 -5 -7 -12 -12 -15 -13 -3 0 -18 -5 -33 -11 -81 -31
-31 0 148 92 291 150 582 301 645 336 57 32 71 37 55 22z m-4602 -93 c-29 -73
-30 -75 -43 -62 -6 6 -4 27 5 57 18 61 22 67 45 67 17 0 17 -4 -7 -62z m4387
47 c0 -6 -56 -35 -67 -35 -4 1 8 9 27 20 39 22 40 22 40 15z m682 -333 c1
-167 0 -288 -3 -270 -12 59 -21 594 -10 583 5 -6 11 -135 13 -313z m-482 297
c0 -5 -4 -7 -10 -4 -5 3 -10 0 -10 -8 0 -8 -7 -17 -15 -21 -8 -3 -15 -12 -15
-20 0 -8 -12 -27 -27 -42 -41 -41 -103 -126 -97 -135 2 -4 -5 -13 -16 -19 -11
-6 -29 -27 -40 -48 -10 -20 -30 -47 -44 -60 -13 -12 -40 -46 -59 -75 -19 -29
-49 -65 -66 -81 -17 -17 -31 -33 -31 -37 0 -5 -11 -20 -25 -35 -14 -15 -25
-33 -25 -40 0 -7 -10 -24 -22 -38 -48 -52 -58 -67 -53 -76 4 -6 2 -10 -4 -10
-5 0 -13 -9 -16 -20 -4 -12 -23 -38 -43 -59 -20 -21 -50 -58 -67 -81 -16 -23
-40 -51 -52 -62 -13 -12 -23 -27 -23 -33 0 -6 -15 -26 -32 -44 l-33 -34 -13
64 c-7 35 -21 91 -32 124 -10 33 -18 60 -17 60 1 1 21 13 45 28 43 28 50 46
33 89 -27 69 -70 273 -60 282 2 2 101 53 219 114 118 61 310 160 425 221 116
61 213 110 218 111 4 0 7 -5 7 -11z m144 -5 c10 -25 -1 -29 -14 -5 -6 12 -7
21 -1 21 5 0 12 -7 15 -16z m-429 -3 c-18 -17 -606 -313 -612 -308 -3 3 111
64 253 136 143 71 282 141 309 155 53 28 65 31 50 17z m400 -11 c3 -5 -1 -10
-10 -10 -9 0 -13 5 -10 10 3 6 8 10 10 10 2 0 7 -4 10 -10z m1 -30 c12 0 12
-4 4 -21 -23 -42 -69 -33 -55 11 4 14 12 19 22 16 8 -3 21 -6 29 -6z m-4796
-27 c0 -16 -12 -62 -25 -103 -14 -41 -23 -64 -21 -50 3 14 10 60 17 103 13 75
29 104 29 50z m5085 -588 c5 -258 9 -521 10 -583 l1 -114 -23 5 c-13 2 -23 1
-23 -3 0 -5 -9 -6 -20 -3 -11 3 -20 14 -20 24 0 18 -10 19 -138 19 -77 0 -214
-3 -306 -7 l-168 -6 7 -92 7 -92 -38 -6 c-40 -7 -264 -10 -264 -4 0 5 105 166
128 197 11 14 27 39 36 57 9 18 23 36 32 41 9 5 15 13 15 18 -1 16 166 276
208 322 11 12 18 22 16 22 -3 0 13 28 34 63 21 34 44 61 51 59 6 -1 9 2 6 7
-7 11 -3 17 342 546 25 39 55 85 66 102 l21 33 6 -68 c4 -37 10 -278 14 -537z
m-135 573 c0 -19 -2 -20 -10 -8 -13 19 -13 30 0 30 6 0 10 -10 10 -22z m354
-78 c4 -49 2 -68 -4 -55 -9 20 -14 142 -5 134 2 -3 7 -38 9 -79z m-7204 50
c-8 -5 -19 -10 -25 -10 -5 0 -3 5 5 10 8 5 20 10 25 10 6 0 3 -5 -5 -10z
m1943 -17 c-9 -39 -54 -135 -60 -130 -4 5 31 130 43 148 12 20 24 8 17 -18z
m4701 11 c11 -28 6 -39 -9 -20 -8 11 -15 23 -15 28 0 14 18 9 24 -8z m-6614
-25 c0 -6 -4 -7 -10 -4 -5 3 -10 11 -10 16 0 6 5 7 10 4 6 -3 10 -11 10 -16z
m55 4 c-4 -10 -10 -26 -12 -35 -3 -10 -10 -18 -15 -18 -6 0 -7 8 -3 18 4 9 10
25 12 35 3 9 10 17 15 17 6 0 7 -8 3 -17z m2221 -29 c13 -32 13 -36 1 -24 -8
8 -18 28 -22 45 -9 38 0 30 21 -21z m4299 36 c3 -5 1 -10 -4 -10 -6 0 -11 5
-11 10 0 6 2 10 4 10 3 0 8 -4 11 -10z m194 1 c16 -10 8 -41 -11 -41 -7 0 -19
4 -27 9 -12 8 -12 12 -2 25 15 18 21 19 40 7z m-4589 -30 c0 -5 3 -17 7 -27 4
-11 3 -15 -4 -11 -14 9 -24 47 -12 47 5 0 9 -4 9 -9z m4398 1 c21 -7 22 -8 7
-29 -9 -13 -20 -23 -25 -23 -16 0 -39 31 -34 45 6 16 15 17 52 7z m-6611 -24
c-3 -8 -6 -5 -6 6 -1 11 2 17 5 13 3 -3 4 -12 1 -19z m171 -53 c22 -52 87
-208 199 -475 35 -85 74 -177 87 -205 31 -67 39 -93 31 -106 -5 -7 -11 -5 -18
5 -15 20 -27 11 -56 -45 -23 -44 -25 -45 -43 -30 -30 25 -68 107 -98 211 -15
52 -49 165 -75 250 -105 348 -111 374 -96 411 5 13 12 33 16 43 5 17 8 17 18
5 7 -8 23 -36 35 -64z m-220 49 c13 -24 -11 -118 -31 -122 -20 -4 -20 -6 -6
75 11 64 21 76 37 47z m6830 -5 c-2 -6 -8 -10 -13 -10 -5 0 -11 4 -13 10 -2 6
4 11 13 11 9 0 15 -5 13 -11z m-220 -50 c4 -24 3 -24 -12 -4 -19 24 -20 38 -3
33 6 -3 13 -15 15 -29z m-683 -7 c-22 -20 -165 -92 -165 -83 0 5 8 11 18 15 9
3 46 22 82 41 68 35 81 41 65 27z m863 -7 c8 -8 -10 -25 -26 -25 -26 0 -46 16
-37 30 6 10 52 7 63 -5z m469 -27 c-3 -7 -5 -2 -5 12 0 14 2 19 5 13 2 -7 2
-19 0 -25z m-4858 -23 c16 -27 17 -35 6 -35 -16 0 -20 5 -29 43 -9 36 -2 34
23 -8z m-80 -56 c-16 -10 -24 2 -34 51 l-7 35 27 -39 c22 -30 25 -40 14 -47z
m-402 35 c-6 -20 -13 -32 -14 -27 -4 11 14 63 21 63 2 0 -1 -16 -7 -36z m4841
17 c3 -8 -1 -12 -9 -9 -7 2 -15 10 -17 17 -3 8 1 12 9 9 7 -2 15 -10 17 -17z
m-6688 -17 c0 -8 -7 -14 -15 -14 -17 0 -18 2 -9 24 7 18 24 12 24 -10z m-101
-41 c-5 -21 -9 -41 -9 -45 0 -14 -18 -8 -24 7 -10 27 5 75 24 75 16 0 17 -5 9
-37z m81 -15 c-1 -7 -7 -24 -15 -38 -11 -21 -15 -22 -20 -8 -7 18 10 58 25 58
6 0 10 -6 10 -12z m2379 -56 c-1 -38 -2 -42 -9 -22 -12 37 -12 82 0 75 6 -3
10 -27 9 -53z m4031 13 c10 -12 10 -15 -3 -15 -8 0 -17 7 -21 15 -3 8 -2 15 3
15 5 0 14 -7 21 -15z m-4128 -20 c3 -13 1 -22 -3 -19 -9 5 -13 44 -5 44 2 0 6
-11 8 -25z m-2392 -25 c0 -27 -15 -48 -26 -37 -3 3 -2 21 1 41 8 41 25 39 25
-4z m2545 -36 c31 -84 31 -84 1 -84 -20 0 -24 6 -30 46 -7 55 -8 119 -1 112 3
-2 16 -36 30 -74z m3953 31 c13 -29 5 -33 -14 -7 -15 20 -18 32 -6 32 5 0 14
-11 20 -25z m-4045 -129 c1 -16 -3 -31 -9 -33 -14 -5 -24 53 -23 127 l1 55 15
-60 c8 -33 15 -73 16 -89z m4002 124 c3 -5 1 -10 -4 -10 -6 0 -11 5 -11 10 0
6 2 10 4 10 3 0 8 -4 11 -10z m-6400 -37 c-9 -21 -20 -42 -25 -47 -19 -19 -18
0 0 42 24 53 47 57 25 5z m6632 13 c-2 -6 -17 -9 -33 -8 -34 4 -38 7 -30 20 8
13 68 2 63 -12z m-222 -10 c25 -18 13 -46 -20 -46 -27 0 -41 20 -31 45 7 19
26 19 51 1z m201 -33 c-3 -8 -6 -17 -6 -21 0 -8 -29 31 -30 40 0 3 9 4 21 1
12 -4 18 -11 15 -20z m-6686 0 c0 -5 -5 -15 -10 -23 -8 -12 -10 -11 -10 8 0
12 5 22 10 22 6 0 10 -3 10 -7z m2729 -47 c-14 -16 -22 1 -14 31 l8 28 7 -25
c4 -14 3 -29 -1 -34z m131 33 c0 -5 -7 -9 -15 -9 -9 0 -12 6 -9 15 6 15 24 11
24 -6z m3758 -14 c-9 -9 -30 14 -23 25 6 9 10 8 17 -4 6 -10 8 -19 6 -21z
m-188 -10 c7 -14 11 -28 7 -31 -3 -3 -13 8 -22 25 -8 17 -12 31 -7 31 5 0 15
-11 22 -25z m40 -6 c0 -6 -4 -7 -10 -4 -5 3 -10 11 -10 16 0 6 5 7 10 4 6 -3
10 -11 10 -16z m-80 1 c0 -5 -5 -10 -11 -10 -5 0 -7 5 -4 10 3 6 8 10 11 10 2
0 4 -4 4 -10z m228 -6 c12 -4 22 -13 22 -21 0 -12 -8 -14 -37 -8 -44 8 -47 10
-38 24 7 12 20 13 53 5z m-4048 -29 c-7 -8 -16 -12 -21 -9 -13 8 -1 24 18 24
13 0 13 -3 3 -15z m4627 -17 c-3 -7 -5 -2 -5 12 0 14 2 19 5 13 2 -7 2 -19 0
-25z m-787 7 c17 -20 4 -35 -30 -35 -32 0 -45 13 -36 35 7 19 50 19 66 0z
m-3784 -30 c15 -36 19 -85 7 -85 -13 0 -73 64 -73 78 0 15 28 41 43 42 4 0 15
-16 23 -35z m75 -33 c-4 -9 -6 -22 -4 -29 2 -6 -1 -14 -7 -18 -18 -11 -23 25
-10 68 12 39 13 40 21 19 5 -13 5 -31 0 -40z m259 -24 l21 -38 -28 0 c-33 0
-53 34 -53 89 l0 36 20 -25 c10 -14 29 -42 40 -62z m3643 73 c16 -6 17 -9 5
-18 -11 -9 -16 -8 -26 8 -13 20 -9 22 21 10z m-63 -32 c0 -5 -7 -9 -15 -9 -9
0 -12 6 -9 15 6 15 24 11 24 -6z m-3726 -5 c11 -28 6 -91 -7 -103 -20 -16 -27
-4 -27 45 0 46 8 74 20 74 4 0 11 -7 14 -16z m4383 -156 c-2 -35 -3 -9 -3 57
0 66 1 94 3 63 2 -32 2 -86 0 -120z m-2247 148 c-8 -7 -58 -33 -110 -56 -52
-23 -117 -52 -145 -65 -27 -13 -81 -37 -119 -55 -37 -17 -70 -29 -73 -26 -3 3
14 14 38 24 76 33 354 163 389 183 24 13 36 10 20 -5z m1394 -2 c9 -23 7 -36
-3 -30 -12 8 -21 46 -11 46 4 0 11 -7 14 -16z m46 2 c0 -11 -19 -15 -25 -6 -3
5 1 10 9 10 9 0 16 -2 16 -4z m-3880 -26 c6 -11 9 -20 7 -20 -2 0 -12 9 -22
20 -10 11 -13 20 -7 20 6 0 16 -9 22 -20z m3800 10 c0 -5 -4 -10 -10 -10 -5 0
-10 5 -10 10 0 6 5 10 10 10 6 0 10 -4 10 -10z m236 -6 c20 -5 22 -9 13 -20
-14 -17 -20 -17 -53 -4 -18 6 -24 14 -20 25 4 9 13 14 21 11 8 -4 26 -9 39
-12z m-1576 1 c0 -2 -24 -15 -53 -29 -29 -13 -91 -42 -138 -64 -46 -21 -100
-46 -119 -54 -36 -16 -58 -26 -174 -77 -38 -17 -71 -29 -73 -27 -2 2 49 27
114 56 176 80 280 128 358 166 68 33 85 39 85 29z m1355 -51 c0 -25 -37 -30
-59 -8 -12 12 -14 20 -6 29 16 19 65 4 65 -21z m-3785 -66 c12 -44 10 -70 -5
-75 -11 -3 -45 109 -45 144 1 29 38 -21 50 -69z m80 34 c0 -7 -4 -10 -10 -7
-5 3 -10 16 -10 28 0 18 2 19 10 7 5 -8 10 -21 10 -28z m3908 20 c6 -18 -15
-14 -22 4 -4 10 -1 14 6 12 6 -2 14 -10 16 -16z m-52 -30 c-9 -9 -37 8 -31 18
5 8 11 7 21 -1 8 -6 12 -14 10 -17z m-1526 -2 c-14 -11 -30 -20 -37 -20 -6 0
-20 -3 -30 -6 -10 -3 2 6 27 20 54 30 75 33 40 6z m1310 -6 c12 -31 12 -34 1
-34 -5 0 -14 14 -20 30 -13 37 5 41 19 4z m-3361 -81 c1 -14 -5 -23 -14 -23
-17 0 -20 35 -8 91 l7 34 7 -40 c5 -22 8 -50 8 -62z m3399 79 c6 -18 -15 -14
-22 4 -4 10 -1 14 6 12 6 -2 14 -10 16 -16z m-73 -20 c-8 -8 -25 10 -19 20 4
6 9 5 15 -3 4 -7 6 -15 4 -17z m-1255 8 c0 -5 -6 -10 -12 -10 -7 0 -60 -23
-116 -50 -57 -28 -109 -50 -115 -50 -7 0 -21 -7 -31 -15 -23 -17 -36 -19 -36
-5 0 6 5 10 11 10 6 0 39 13 73 29 33 16 88 41 121 56 33 14 67 30 75 35 20
12 30 12 30 0z m1515 -11 c5 -6 4 -14 -4 -21 -10 -10 -15 -10 -18 -1 -2 7 -10
10 -16 8 -18 -7 -41 11 -32 25 8 12 53 6 70 -11z m902 -11 c-3 -7 -5 -2 -5 12
0 14 2 19 5 13 2 -7 2 -19 0 -25z m-2407 -58 c0 -19 -7 -56 -14 -81 -12 -41
-12 -48 1 -61 12 -13 13 -27 3 -94 -16 -108 -1 -159 55 -191 22 -13 49 -21 60
-19 19 5 20 0 19 -67 -1 -127 25 -116 -272 -119 -141 -2 -261 -1 -265 0 -4 2
-3 9 2 16 8 10 5 16 -12 23 -13 6 -41 38 -63 72 -40 63 -62 75 -71 41 -3 -11
-8 -20 -12 -21 -3 0 -14 -2 -23 -4 -20 -4 -53 29 -43 44 4 7 -2 8 -17 2 -19
-7 -22 -14 -20 -42 6 -55 -12 -24 -57 98 -23 62 -41 115 -41 117 0 2 28 16 63
31 118 52 142 63 247 110 58 26 132 59 165 75 299 140 277 131 287 116 4 -6 8
-27 8 -46z m1244 50 c37 -14 32 -30 -9 -30 -28 0 -35 4 -35 20 0 23 8 24 44
10z m-1405 -5 c-9 -8 -79 -35 -79 -30 0 3 15 11 33 19 32 15 54 20 46 11z
m1634 -31 c-7 -18 -10 -18 -22 5 -9 16 -8 18 8 14 12 -3 17 -11 14 -19z
m-1793 12 c0 -7 -63 -37 -67 -32 -2 2 11 11 29 19 37 18 38 19 38 13z m1734
-21 c3 -9 0 -15 -9 -15 -8 0 -15 7 -15 15 0 8 4 15 9 15 5 0 11 -7 15 -15z
m-1669 -5 c-3 -5 -12 -10 -18 -10 -7 0 -6 4 3 10 19 12 23 12 15 0z m2662
-112 c-2 -24 -4 -5 -4 42 0 47 2 66 4 43 2 -24 2 -62 0 -85z m-2917 105 c-8
-3 -24 -10 -35 -15 -20 -9 -20 -9 -1 6 11 9 27 16 35 15 14 0 14 -1 1 -6z
m220 -7 c0 -2 -7 -7 -16 -10 -8 -3 -12 -2 -9 4 6 10 25 14 25 6z m-2030 -18
c0 -7 -4 -19 -9 -26 -7 -11 -10 -10 -15 3 -10 26 -7 35 9 35 8 0 15 -6 15 -12z
m1890 2 c-8 -5 -19 -10 -25 -10 -5 0 -3 5 5 10 8 5 20 10 25 10 6 0 3 -5 -5
-10z m-1646 -25 c12 -31 18 -155 8 -155 -6 0 -14 5 -17 10 -3 6 -16 10 -27 10
-20 0 -21 4 -15 70 3 39 8 74 12 80 7 12 32 3 39 -15z m-139 -43 c-6 -14 -9
-11 -16 13 -6 20 -5 32 4 37 14 9 22 -25 12 -50z m1585 38 c-8 -5 -19 -10 -25
-10 -5 0 -3 5 5 10 8 5 20 10 25 10 6 0 3 -5 -5 -10z m130 0 c-8 -5 -19 -10
-25 -10 -5 0 -3 5 5 10 8 5 20 10 25 10 6 0 3 -5 -5 -10z m-1914 -22 c-3 -13
-6 -26 -6 -30 0 -5 -4 -8 -10 -8 -5 0 -10 14 -10 30 0 21 5 30 16 30 12 0 15
-6 10 -22z m2049 2 c-3 -5 -12 -10 -18 -10 -7 0 -6 4 3 10 19 12 23 12 15 0z
m-265 -4 c0 -8 -91 -48 -97 -42 -3 3 7 11 23 17 16 6 38 15 49 19 25 11 25 11
25 6z m230 -11 c0 -5 -89 -45 -99 -45 -8 1 81 49 92 50 4 0 7 -2 7 -5z m-210
-15 c-8 -5 -19 -10 -25 -10 -5 0 -3 5 5 10 8 5 20 10 25 10 6 0 3 -5 -5 -10z
m-170 -14 c0 -2 -7 -7 -16 -10 -8 -3 -12 -2 -9 4 6 10 25 14 25 6z m20 -21
c-14 -8 -29 -14 -35 -14 -5 0 1 6 15 14 14 8 30 14 35 14 6 0 -1 -6 -15 -14z
m880 -23 c0 -7 -4 -10 -10 -7 -5 3 -10 16 -10 28 0 18 2 19 10 7 5 -8 10 -21
10 -28z m-4336 12 c3 -8 2 -12 -4 -9 -6 3 -10 10 -10 16 0 14 7 11 14 -7z
m3696 6 c-8 -5 -22 -9 -30 -9 -10 0 -8 3 5 9 27 12 43 12 25 0z m1585 0 c3 -5
-1 -10 -10 -10 -9 0 -13 5 -10 10 3 6 8 10 10 10 2 0 7 -4 10 -10z m-3425 -15
c10 -13 9 -15 -9 -15 -12 0 -21 6 -21 15 0 8 4 15 9 15 5 0 14 -7 21 -15z
m-2040 -31 c0 -24 -2 -25 -17 -13 -10 7 -20 14 -22 16 -8 5 11 23 25 23 8 0
14 -10 14 -26z m98 14 c-6 -18 -28 -21 -28 -4 0 9 7 16 16 16 9 0 14 -5 12
-12z m5386 -8 c5 -5 6 -16 3 -24 -9 -23 -67 -1 -67 26 0 17 4 19 28 13 15 -3
31 -10 36 -15z m-5339 0 c3 -5 -1 -10 -10 -10 -9 0 -13 5 -10 10 3 6 8 10 10
10 2 0 7 -4 10 -10z m3275 -25 c-14 -8 -29 -14 -35 -14 -5 0 1 6 15 14 14 8
30 14 35 14 6 0 -1 -6 -15 -14z m325 5 c-3 -5 -12 -10 -18 -10 -7 0 -6 4 3 10
19 12 23 12 15 0z m-295 -20 c-8 -5 -19 -10 -25 -10 -5 0 -3 5 5 10 8 5 20 10
25 10 6 0 3 -5 -5 -10z m237 -6 c-16 -9 -31 -13 -34 -10 -3 3 5 10 18 15 37
15 47 12 16 -5z m-3761 -16 c1 -10 -4 -18 -12 -18 -8 0 -14 2 -14 4 0 2 -3 12
-6 21 -5 13 -2 16 11 14 10 -2 19 -12 21 -21z m3434 12 c-8 -5 -19 -10 -25
-10 -5 0 -3 5 5 10 8 5 20 10 25 10 6 0 3 -5 -5 -10z m2064 -40 c-7 -6 -24 22
-23 40 0 9 6 5 14 -10 7 -14 11 -27 9 -30z m41 30 c-3 -5 -10 -10 -16 -10 -5
0 -9 5 -9 10 0 6 7 10 16 10 8 0 12 -4 9 -10z m-2200 -30 c-22 -10 -44 -18
-50 -18 -5 0 8 8 30 19 22 10 45 18 50 18 6 0 -8 -9 -30 -19z m50 -10 c-33
-16 -64 -28 -70 -28 -5 0 17 13 50 28 33 16 65 29 70 29 6 0 -17 -13 -50 -29z
m115 20 c-8 -5 -19 -10 -25 -10 -5 0 -3 5 5 10 8 5 20 10 25 10 6 0 3 -5 -5
-10z m2230 -6 c0 -9 5 -12 12 -8 7 5 8 3 3 -6 -6 -10 -11 -9 -21 4 -8 12 -13
13 -16 5 -2 -7 -10 -9 -16 -5 -17 10 -5 26 19 26 11 0 19 -7 19 -16z m-261
-33 c12 -22 5 -31 -25 -31 -23 0 -49 31 -37 44 13 13 53 5 62 -13z m-1934 -1
c-4 -7 3 -9 22 -5 l28 7 -29 -16 c-35 -20 -35 -20 -31 2 5 23 4 22 11 22 3 0
2 -5 -1 -10z m2185 -15 c0 -8 -4 -15 -9 -15 -5 0 -11 7 -15 15 -3 9 0 15 9 15
8 0 15 -7 15 -15z m-2510 -9 c-14 -7 -36 -16 -50 -20 -14 -3 -7 3 15 13 45 22
73 27 35 7z m-3174 -38 c-4 -23 -9 -45 -12 -47 -9 -9 -24 23 -24 50 0 29 7 39
28 39 12 0 13 -9 8 -42z m3229 32 c-3 -5 -12 -10 -18 -10 -7 0 -6 4 3 10 19
12 23 12 15 0z m226 -5 c0 -5 -5 -11 -13 -13 -9 -2 -8 0 2 8 12 9 9 10 -15 6
-22 -5 -26 -4 -15 4 18 12 41 9 41 -5z m2174 -7 c6 -4 2 -8 -7 -8 -10 0 -18 7
-18 17 0 9 3 12 8 7 4 -5 12 -12 17 -16z m-2069 -13 c2 -11 13 -58 24 -105 12
-47 23 -96 24 -110 1 -14 6 -31 10 -38 4 -8 6 -16 3 -19 -3 -3 -115 -7 -249
-10 -220 -4 -244 -6 -260 -23 -16 -17 -32 -18 -148 -16 -85 1 -134 6 -142 14
-7 7 -19 12 -27 12 -23 0 53 34 289 130 69 28 139 57 155 65 17 7 64 27 105
43 41 17 100 42 130 56 62 30 82 30 86 1z m-376 5 c-8 -5 -19 -10 -25 -10 -5
0 -3 5 5 10 8 5 20 10 25 10 6 0 3 -5 -5 -10z m410 0 c0 -5 -4 -10 -10 -10 -5
0 -10 5 -10 10 0 6 5 10 10 10 6 0 10 -4 10 -10z m1808 -15 c-3 -3 -9 2 -12
12 -6 14 -5 15 5 6 7 -7 10 -15 7 -18z m-5194 -29 c7 -36 6 -38 -9 -23 -10 11
-13 25 -9 42 8 32 10 30 18 -19z m2885 40 c-2 -2 -15 -9 -29 -15 -24 -11 -24
-11 -6 3 16 13 49 24 35 12z m302 -13 c-18 -8 -36 -12 -39 -9 -3 4 0 6 7 6 7
0 10 3 8 8 -3 4 9 7 26 8 l32 1 -34 -14z m-256 -2 c-6 -4 -23 -13 -40 -19 -16
-6 -79 -32 -140 -57 -60 -26 -141 -60 -180 -75 -38 -15 -86 -34 -105 -43 -93
-41 -112 -48 -117 -43 -4 3 -4 8 -2 10 4 4 581 235 589 236 2 0 0 -4 -5 -9z
m65 -1 c-8 -5 -19 -10 -25 -10 -5 0 -3 5 5 10 8 5 20 10 25 10 6 0 3 -5 -5
-10z m136 -7 c-2 -9 -9 -19 -17 -21 -11 -3 -11 -1 1 8 12 10 10 11 -10 6 -24
-5 -24 -4 -6 9 26 20 35 19 32 -2z m2264 8 c0 -5 9 -7 20 -4 11 3 20 1 20 -5
0 -18 -19 -24 -53 -16 -17 4 -26 9 -19 11 6 3 10 9 6 14 -3 5 2 9 10 9 9 0 16
-4 16 -9z m-1990 -17 c0 -8 -5 -12 -10 -9 -6 4 -8 11 -5 16 9 14 15 11 15 -7z
m-328 -19 c0 -5 -5 -10 -11 -11 -8 -2 -7 -1 0 3 8 4 7 8 -2 15 -11 8 -11 9 -1
6 8 -2 14 -8 14 -13z m-342 -15 c-8 -5 -19 -10 -25 -10 -5 0 -3 5 5 10 8 5 20
10 25 10 6 0 3 -5 -5 -10z m260 -5 c-14 -8 -29 -14 -35 -14 -5 0 1 6 15 14 14
8 30 14 35 14 6 0 -1 -6 -15 -14z m424 -37 c-3 -4 -10 -8 -15 -8 -6 0 -8 4 -4
9 3 5 1 12 -5 16 -5 3 -10 14 -10 23 0 13 5 12 19 -8 11 -13 17 -28 15 -32z
m1980 44 c2 -4 1 -14 -5 -22 -8 -14 -11 -11 -8 6 0 4 -5 11 -13 15 -10 7 -9 9
4 9 9 0 19 -4 22 -8z m-5428 -49 c-11 -11 -17 4 -9 23 7 18 8 18 11 1 2 -10 1
-21 -2 -24z m5364 22 c0 -8 -4 -15 -10 -15 -5 0 -10 7 -10 15 0 8 5 15 10 15
6 0 10 -7 10 -15z m-2675 -5 c-3 -5 -11 -10 -16 -10 -6 0 -7 5 -4 10 3 6 11
10 16 10 6 0 7 -4 4 -10z m263 -6 c-40 -21 -34 -27 8 -9 51 21 56 18 11 -6
-26 -14 -43 -17 -54 -11 -14 8 -12 12 13 25 16 9 34 16 39 16 6 0 -2 -7 -17
-15z m-308 -14 c-8 -5 -19 -10 -25 -10 -5 0 -3 5 5 10 8 5 20 10 25 10 6 0 3
-5 -5 -10z m140 0 c-8 -5 -19 -10 -25 -10 -5 0 -3 5 5 10 8 5 20 10 25 10 6 0
3 -5 -5 -10z m-200 -24 c-14 -7 -36 -16 -50 -20 -14 -3 -7 3 15 13 45 22 73
27 35 7z m285 4 c-3 -5 -14 -10 -23 -10 -14 0 -15 -2 -2 -10 11 -7 9 -11 -13
-19 -15 -6 -39 -15 -53 -21 -14 -5 -23 -6 -20 -1 4 5 0 12 -6 15 -7 3 -3 3 8
1 24 -6 76 14 68 26 -2 4 4 12 13 18 23 13 36 14 28 1z m580 1 c3 -5 1 -12 -5
-16 -5 -3 -10 1 -10 9 0 18 6 21 15 7z m1930 3 c13 -5 14 -8 3 -15 -17 -11
-68 -12 -68 -1 0 21 31 29 65 16z m-2670 -13 c-6 -5 -21 -11 -35 -15 -21 -5
-20 -3 5 9 35 17 42 18 30 6z m782 -13 c-3 -8 -6 -5 -6 6 -1 11 2 17 5 13 3
-3 4 -12 1 -19z m-20 -24 c-9 -9 -28 6 -21 18 4 6 10 6 17 -1 6 -6 8 -13 4
-17z m224 11 c-1 -11 -20 -14 -35 -7 -10 5 15 23 27 19 5 -1 8 -7 8 -12z
m-1211 -10 c-14 -8 -29 -14 -35 -14 -5 0 1 6 15 14 14 8 30 14 35 14 6 0 -1
-6 -15 -14z m160 11 c0 -2 -7 -7 -16 -10 -8 -3 -12 -2 -9 4 6 10 25 14 25 6z
m978 -76 c-3 -24 -4 -24 -15 -5 -6 11 -9 33 -6 50 l6 29 9 -24 c5 -13 8 -36 6
-50z m1732 55 c-7 -8 -14 -15 -15 -15 -2 0 -5 7 -9 15 -4 10 1 15 16 15 17 0
18 -2 8 -15z m-2630 0 c0 -3 -12 -10 -27 -16 -19 -7 -23 -13 -15 -18 9 -5 0
-13 -27 -23 -29 -12 -42 -13 -52 -4 -9 8 -10 8 -5 -1 5 -9 2 -11 -9 -7 -10 4
-15 2 -13 -6 2 -7 -4 -15 -12 -17 -12 -4 -13 -3 -1 5 11 8 10 11 -5 14 -12 2
6 14 51 31 39 15 77 32 85 37 17 11 30 13 30 5z m-290 -9 c0 -2 -9 -6 -20 -9
-11 -3 -18 -1 -14 4 5 9 34 13 34 5z m1260 -6 c0 -5 -2 -10 -4 -10 -3 0 -8 5
-11 10 -3 6 -1 10 4 10 6 0 11 -4 11 -10z m1595 0 c3 -5 -1 -10 -9 -10 -9 0
-16 5 -16 10 0 6 4 10 9 10 6 0 13 -4 16 -10z m-2555 -10 c-8 -5 -19 -10 -25
-10 -5 0 -3 5 5 10 8 5 20 10 25 10 6 0 3 -5 -5 -10z m-390 -20 c-8 -5 -22 -9
-30 -9 -10 0 -8 3 5 9 27 12 43 12 25 0z m150 1 c-8 -5 -26 -11 -40 -15 -21
-5 -20 -3 5 9 32 15 60 20 35 6z m2793 -8 c-7 -2 -21 -2 -30 0 -10 3 -4 5 12
5 17 0 24 -2 18 -5z m-6720 -530 c-7 -2 -21 -2 -30 0 -10 3 -4 5 12 5 17 0 24
-2 18 -5z m-280 -20 c-68 -2 -178 -2 -245 0 -68 1 -13 3 122 3 135 0 190 -2
123 -3z m190 0 c-13 -2 -33 -2 -45 0 -13 2 -3 4 22 4 25 0 35 -2 23 -4z
m-1913 -88 c0 -8 -7 -15 -16 -15 -14 0 -14 3 -4 15 7 8 14 15 16 15 2 0 4 -7
4 -15z m1698 -44 c3 -36 1 -43 -12 -38 -10 4 -16 1 -16 -8 0 -12 -14 -15 -60
-15 -33 0 -60 3 -60 8 0 4 -32 8 -71 10 -47 2 -68 -1 -64 -8 4 -6 -23 -10 -80
-10 -55 0 -84 4 -80 10 3 6 1 10 -4 10 -6 0 -11 18 -11 40 l0 40 173 3 c94 1
197 3 227 2 l55 0 3 -44z m562 -6 c0 -34 -4 -55 -11 -55 -6 0 -9 7 -5 15 5 13
-10 15 -102 13 l-107 -2 100 -6 c104 -6 94 -10 -38 -15 -64 -2 -77 0 -73 11 4
10 -4 14 -29 14 -19 0 -35 -5 -35 -11 0 -6 -7 -8 -16 -5 -9 4 -23 1 -30 -5
-11 -9 -14 -8 -14 5 0 9 -7 16 -16 16 -10 0 -14 6 -10 15 3 8 1 15 -4 15 -6 0
-10 9 -10 20 0 11 -7 20 -15 20 -8 0 -16 -9 -16 -20 -1 -11 -3 -24 -4 -30 -1
-5 -3 -13 -4 -17 0 -4 -6 -2 -12 4 -9 9 -9 20 1 42 l12 31 219 0 219 0 0 -55z
m-255 -45 c3 -5 -1 -10 -9 -10 -8 0 -18 5 -21 10 -3 6 1 10 9 10 8 0 18 -4 21
-10z m-1000 -10 c-5 -9 -94 -4 -104 6 -2 2 21 4 53 4 35 0 55 -4 51 -10z m108
3 c-18 -2 -48 -2 -65 0 -18 2 -4 4 32 4 36 0 50 -2 33 -4z m-693 -7 c0 -3 -4
-8 -10 -11 -5 -3 -10 -1 -10 4 0 6 5 11 10 11 6 0 10 -2 10 -4z m700 -716 c15
-5 -27 -8 -110 -9 -74 -1 -200 -4 -280 -7 -106 -5 -142 -4 -135 4 7 8 77 13
195 15 102 1 212 3 245 4 33 0 71 -3 85 -7z m649 6 c-8 -8 -598 -11 -605 -3
-4 4 131 7 301 7 170 0 306 -2 304 -4z m74 -3 c-7 -2 -19 -2 -25 0 -7 3 -2 5
12 5 14 0 19 -2 13 -5z m-1436 -9 c-3 -3 -12 -4 -19 -1 -8 3 -5 6 6 6 11 1 17
-2 13 -5z"/>
<path d="M9233 3663 c-18 -9 -33 -20 -33 -25 0 -4 -9 -8 -19 -8 -10 0 -21 -7
-25 -15 -3 -8 -9 -15 -13 -14 -4 1 -17 1 -27 0 -15 -1 -17 -4 -8 -13 8 -8 25
-3 71 25 32 21 63 37 69 37 5 0 15 7 22 15 16 19 4 18 -37 -2z"/>
<path d="M10003 2613 c9 -2 25 -2 35 0 9 3 1 5 -18 5 -19 0 -27 -2 -17 -5z"/>
<path d="M10098 2603 c7 -3 16 -2 19 1 4 3 -2 6 -13 5 -11 0 -14 -3 -6 -6z"/>
<path d="M7828 2433 c7 -3 16 -2 19 1 4 3 -2 6 -13 5 -11 0 -14 -3 -6 -6z"/>
<path d="M7088 2373 c6 -2 18 -2 25 0 6 3 1 5 -13 5 -14 0 -19 -2 -12 -5z"/>
<path d="M6508 2393 c7 -3 16 -2 19 1 4 3 -2 6 -13 5 -11 0 -14 -3 -6 -6z"/>
<path d="M1697 1658 c-6 -4 15 -7 48 -7 64 1 65 5 2 11 -20 2 -43 0 -50 -4z"/>
<path d="M5027 3009 c-13 -46 -8 -99 8 -99 11 0 15 11 14 43 0 23 -4 51 -8 61
-7 18 -8 18 -14 -5z"/>
<path d="M10611 3014 c0 -11 3 -14 6 -6 3 7 2 16 -1 19 -3 4 -6 -2 -5 -13z"/>
<path d="M2992 2990 c0 -14 2 -19 5 -12 2 6 2 18 0 25 -3 6 -5 1 -5 -13z"/>
<path d="M4927 2970 c-3 -14 -3 -28 2 -33 12 -12 20 14 11 37 -6 18 -7 18 -13
-4z"/>
<path d="M3060 2874 c0 -82 -4 -115 -15 -131 -13 -18 -13 -29 -3 -67 12 -45
28 -62 28 -29 0 9 5 32 12 50 10 27 10 36 0 42 -9 6 -12 39 -11 120 1 62 -2
115 -5 118 -3 4 -6 -43 -6 -103z"/>
<path d="M3011 2924 c0 -11 3 -14 6 -6 3 7 2 16 -1 19 -3 4 -6 -2 -5 -13z"/>
<path d="M10672 2855 c0 -16 2 -22 5 -12 2 9 2 23 0 30 -3 6 -5 -1 -5 -18z"/>
<path d="M2987 2813 c-12 -11 -8 -40 7 -52 15 -13 26 4 26 40 0 18 -20 26 -33
12z"/>
<path d="M635 1700 c-3 -5 -1 -10 4 -10 6 0 11 5 11 10 0 6 -2 10 -4 10 -3 0
-8 -4 -11 -10z"/>
</g>
</svg>
